solid LiteArm_i2_REV4_10
facet normal 1.26828737518742e-031 1.0 -2.40610154732806e-018
outer loop
vertex -1288.94222078038 300.111756730936 6.80295524441441
vertex -1282.09443447598 300.111756730936 1.19983024441479
vertex -1288.94222078038 300.111756730936 1.19983024441443
endloop
endfacet
facet normal 1.26828737518742e-031 1.0 -2.40610154732806e-018
outer loop
vertex -1282.09443447598 300.111756730936 1.19983024441479
vertex -1288.94222078038 300.111756730936 6.80295524441441
vertex -1282.09443447598 300.111756730936 6.80295524441478
endloop
endfacet
facet normal -1.0 -7.105427357601e-015 -5.77673896298546e-014
outer loop
vertex -1288.94222078038 300.111756730936 6.80295524441441
vertex -1288.94222078038 293.761756730936 1.19983024441443
vertex -1288.94222078038 293.761756730936 6.80295524441441
endloop
endfacet
facet normal -1.0 -7.105427357601e-015 -5.77673896298546e-014
outer loop
vertex -1288.94222078038 293.761756730936 1.19983024441443
vertex -1288.94222078038 300.111756730936 6.80295524441441
vertex -1288.94222078038 300.111756730936 1.19983024441443
endloop
endfacet
facet normal -1.26828737518742e-031 -1.0 2.40610154732806e-018
outer loop
vertex -1282.09443447598 293.761756730936 1.19983024441479
vertex -1288.94222078038 293.761756730936 6.80295524441441
vertex -1288.94222078038 293.761756730936 1.19983024441443
endloop
endfacet
facet normal -1.26828737518742e-031 -1.0 2.40610154732806e-018
outer loop
vertex -1288.94222078038 293.761756730936 6.80295524441441
vertex -1282.09443447598 293.761756730936 1.19983024441479
vertex -1282.09443447598 293.761756730936 6.80295524441478
endloop
endfacet
facet normal -1.0 2.03012210217171e-015 -5.77673896298546e-014
outer loop
vertex -1282.09443447598 293.761756730936 6.80295524441478
vertex -1282.09443447598 282.649256730936 1.19983024441479
vertex -1282.09443447598 282.649256730936 6.80295524441478
endloop
endfacet
facet normal -1.0 2.03012210217171e-015 -5.77673896298546e-014
outer loop
vertex -1282.09443447598 282.649256730936 1.19983024441479
vertex -1282.09443447598 293.761756730936 6.80295524441478
vertex -1282.09443447598 282.649256730936 -0.197044755585212
endloop
endfacet
facet normal -1.0 2.03012210217171e-015 -5.77673896298546e-014
outer loop
vertex -1282.09443447598 282.649256730936 -0.197044755585212
vertex -1282.09443447598 293.761756730936 6.80295524441478
vertex -1282.09443447598 293.761756730936 -0.197044755585212
endloop
endfacet
facet normal -1.0 2.03012210217171e-015 -5.77673896298546e-014
outer loop
vertex -1282.09443447598 293.761756730936 -0.197044755585212
vertex -1282.09443447598 293.761756730936 6.80295524441478
vertex -1282.09443447598 293.761756730936 1.19983024441479
endloop
endfacet
facet normal 6.58891234555247e-015 1.0 -2.40610154694743e-018
outer loop
vertex -1288.94222078038 282.649256730936 6.80295524441441
vertex -1282.09443447598 282.649256730936 1.19983024441479
vertex -1288.94222078038 282.649256730936 1.19983024441443
endloop
endfacet
facet normal 6.58891234555247e-015 1.0 -2.40610154694743e-018
outer loop
vertex -1282.09443447598 282.649256730936 1.19983024441479
vertex -1288.94222078038 282.649256730936 6.80295524441441
vertex -1282.09443447598 282.649256730936 6.80295524441478
endloop
endfacet
facet normal -6.58891234555249e-015 -1.0 2.40610154694743e-018
outer loop
vertex -1282.09443447598 276.299256730936 1.19983024441479
vertex -1288.94222078038 276.299256730936 6.80295524441441
vertex -1288.94222078038 276.299256730936 1.19983024441443
endloop
endfacet
facet normal -6.58891234555249e-015 -1.0 2.40610154694743e-018
outer loop
vertex -1288.94222078038 276.299256730936 6.80295524441441
vertex -1282.09443447598 276.299256730936 1.19983024441479
vertex -1282.09443447598 276.299256730936 6.80295524441478
endloop
endfacet
facet normal -6.58891234555258e-015 -1.0 2.40610154694743e-018
outer loop
vertex -1249.88125567158 276.299256730936 1.19983024441666
vertex -1256.72904197598 276.299256730936 6.80295524441626
vertex -1256.72904197598 276.299256730936 1.19983024441627
endloop
endfacet
facet normal -6.58891234555258e-015 -1.0 2.40610154694743e-018
outer loop
vertex -1256.72904197598 276.299256730936 6.80295524441626
vertex -1249.88125567158 276.299256730936 1.19983024441666
vertex -1249.88125567158 276.299256730936 6.80295524441667
endloop
endfacet
facet normal 1.0 -7.105427357601e-015 5.77673896298546e-014
outer loop
vertex -1249.88125567158 282.649256730936 1.19983024441666
vertex -1249.88125567158 276.299256730936 6.80295524441667
vertex -1249.88125567158 276.299256730936 1.19983024441666
endloop
endfacet
facet normal 1.0 -7.105427357601e-015 5.77673896298546e-014
outer loop
vertex -1249.88125567158 276.299256730936 6.80295524441667
vertex -1249.88125567158 282.649256730936 1.19983024441666
vertex -1249.88125567158 282.649256730936 6.80295524441667
endloop
endfacet
facet normal 1.0 -4.06024420434343e-015 5.77673896298546e-014
outer loop
vertex -1256.72904197598 293.761756730936 -0.197044755583723
vertex -1256.72904197598 282.649256730936 1.19983024441627
vertex -1256.72904197598 282.649256730936 -0.197044755583723
endloop
endfacet
facet normal 1.0 -4.06024420434343e-015 5.77673896298546e-014
outer loop
vertex -1256.72904197598 282.649256730936 1.19983024441627
vertex -1256.72904197598 293.761756730936 -0.197044755583723
vertex -1256.72904197598 282.649256730936 6.80295524441626
endloop
endfacet
facet normal 1.0 -4.06024420434343e-015 5.77673896298546e-014
outer loop
vertex -1256.72904197598 282.649256730936 6.80295524441626
vertex -1256.72904197598 293.761756730936 -0.197044755583723
vertex -1256.72904197598 293.761756730936 6.80295524441626
endloop
endfacet
facet normal 1.0 -4.06024420434343e-015 5.77673896298546e-014
outer loop
vertex -1256.72904197598 293.761756730936 6.80295524441626
vertex -1256.72904197598 293.761756730936 -0.197044755583723
vertex -1256.72904197598 293.761756730936 1.19983024441627
endloop
endfacet
facet normal -1.34755533613664e-031 -1.0 2.40610154732806e-018
outer loop
vertex -1249.88125567158 293.761756730936 1.19983024441666
vertex -1256.72904197598 293.761756730936 6.80295524441626
vertex -1256.72904197598 293.761756730936 1.19983024441627
endloop
endfacet
facet normal -1.34755533613664e-031 -1.0 2.40610154732806e-018
outer loop
vertex -1256.72904197598 293.761756730936 6.80295524441626
vertex -1249.88125567158 293.761756730936 1.19983024441666
vertex -1249.88125567158 293.761756730936 6.80295524441667
endloop
endfacet
facet normal 1.0 0.0 5.77673896298546e-014
outer loop
vertex -1249.88125567158 300.111756730936 1.19983024441666
vertex -1249.88125567158 293.761756730936 6.80295524441667
vertex -1249.88125567158 293.761756730936 1.19983024441666
endloop
endfacet
facet normal 1.0 0.0 5.77673896298546e-014
outer loop
vertex -1249.88125567158 293.761756730936 6.80295524441667
vertex -1249.88125567158 300.111756730936 1.19983024441666
vertex -1249.88125567158 300.111756730936 6.80295524441667
endloop
endfacet
facet normal -1.0 -9.25857124871972e-015 -5.77673896298546e-014
outer loop
vertex -1282.09443447598 276.299256730936 6.80295524441478
vertex -1282.09443447598 271.425992540524 -0.19704475558519
vertex -1282.09443447598 271.425992540524 6.80295524441482
endloop
endfacet
facet normal -1.0 -9.25857124871972e-015 -5.77673896298546e-014
outer loop
vertex -1282.09443447598 271.425992540524 -0.19704475558519
vertex -1282.09443447598 276.299256730936 6.80295524441478
vertex -1282.09443447598 276.299256730936 -0.197044755585212
endloop
endfacet
facet normal -1.0 -9.25857124871972e-015 -5.77673896298546e-014
outer loop
vertex -1282.09443447598 276.299256730936 -0.197044755585212
vertex -1282.09443447598 276.299256730936 6.80295524441478
vertex -1282.09443447598 276.299256730936 1.19983024441479
endloop
endfacet
facet normal 3.55756085546608e-014 1.0 -2.40610154527295e-018
outer loop
vertex -1282.09443447598 304.763492540524 6.80295524441482
vertex -1256.72904197598 304.763492540523 -0.197044755583701
vertex -1282.09443447598 304.763492540524 -0.19704475558519
endloop
endfacet
facet normal 3.55756085546608e-014 1.0 -2.40610154527295e-018
outer loop
vertex -1256.72904197598 304.763492540523 -0.197044755583701
vertex -1282.09443447598 304.763492540524 6.80295524441482
vertex -1256.72904197598 304.763492540523 6.80295524441631
endloop
endfacet
facet normal -1.0 1.72705792910428e-028 -4.55740865974287e-014
outer loop
vertex -1261.49154197598 300.000992540523 6.80295524441613
vertex -1261.49154197598 276.188492540524 -0.197044755583949
vertex -1261.49154197598 276.188492540524 6.80295524441604
endloop
endfacet
facet normal -1.0 1.72705792910428e-028 -4.55740865974287e-014
outer loop
vertex -1261.49154197598 276.188492540524 -0.197044755583949
vertex -1261.49154197598 300.000992540523 6.80295524441613
vertex -1261.49154197598 300.000992540524 -0.197044755583859
endloop
endfacet
facet normal -1.0 1.93989794638674e-014 -5.77673896298546e-014
outer loop
vertex -1282.09443447598 304.763492540524 6.80295524441482
vertex -1282.09443447598 300.111756730936 1.19983024441479
vertex -1282.09443447598 300.111756730936 6.80295524441478
endloop
endfacet
facet normal -1.0 1.93989794638674e-014 -5.77673896298546e-014
outer loop
vertex -1282.09443447598 300.111756730936 1.19983024441479
vertex -1282.09443447598 304.763492540524 6.80295524441482
vertex -1282.09443447598 300.111756730936 -0.197044755585212
endloop
endfacet
facet normal -1.0 1.93989794638674e-014 -5.77673896298546e-014
outer loop
vertex -1282.09443447598 300.111756730936 -0.197044755585212
vertex -1282.09443447598 304.763492540524 6.80295524441482
vertex -1282.09443447598 304.763492540524 -0.19704475558519
endloop
endfacet
facet normal 2.42867521280289e-028 -1.0 -5.68434188608088e-015
outer loop
vertex -1261.49154197598 300.000992540524 -0.197044755583859
vertex -1277.33193447598 300.000992540523 6.80295524441545
vertex -1277.33193447598 300.000992540524 -0.197044755584535
endloop
endfacet
facet normal 2.42867521280289e-028 -1.0 -5.68434188608088e-015
outer loop
vertex -1277.33193447598 300.000992540523 6.80295524441545
vertex -1261.49154197598 300.000992540524 -0.197044755583859
vertex -1261.49154197598 300.000992540523 6.80295524441613
endloop
endfacet
facet normal 1.34755533613664e-031 1.0 -2.40610154732806e-018
outer loop
vertex -1256.72904197598 300.111756730936 6.80295524441626
vertex -1249.88125567158 300.111756730936 1.19983024441666
vertex -1256.72904197598 300.111756730936 1.19983024441627
endloop
endfacet
facet normal 1.34755533613664e-031 1.0 -2.40610154732806e-018
outer loop
vertex -1249.88125567158 300.111756730936 1.19983024441666
vertex -1256.72904197598 300.111756730936 6.80295524441626
vertex -1249.88125567158 300.111756730936 6.80295524441667
endloop
endfacet
facet normal 1.0 -2.80157101277738e-028 5.77673896298546e-014
outer loop
vertex -1256.72904197598 304.763492540523 -0.197044755583701
vertex -1256.72904197598 300.111756730936 1.19983024441627
vertex -1256.72904197598 300.111756730936 -0.197044755583723
endloop
endfacet
facet normal 1.0 -2.80157101277738e-028 5.77673896298546e-014
outer loop
vertex -1256.72904197598 300.111756730936 1.19983024441627
vertex -1256.72904197598 304.763492540523 -0.197044755583701
vertex -1256.72904197598 300.111756730936 6.80295524441626
endloop
endfacet
facet normal 1.0 -2.80157101277738e-028 5.77673896298546e-014
outer loop
vertex -1256.72904197598 300.111756730936 6.80295524441626
vertex -1256.72904197598 304.763492540523 -0.197044755583701
vertex -1256.72904197598 304.763492540523 6.80295524441631
endloop
endfacet
facet normal -5.77673896298546e-014 2.40610154732806e-018 1.0
outer loop
vertex -1277.33193447598 300.000992540523 6.80295524441545
vertex -1270.95721954805 302.023514163566 6.80295524441557
vertex -1271.01173822598 302.43762463573 6.80295524441557
endloop
endfacet
facet normal -5.77673896298546e-014 2.40610154732806e-018 1.0
outer loop
vertex -1270.95721954805 302.023514163566 6.80295524441557
vertex -1277.33193447598 300.000992540523 6.80295524441545
vertex -1270.79737887204 301.63762463573 6.80295524441559
endloop
endfacet
facet normal -5.77673896298546e-014 2.40610154732806e-018 1.0
outer loop
vertex -1270.79737887204 301.63762463573 6.80295524441559
vertex -1277.33193447598 300.000992540523 6.80295524441545
vertex -1270.54310907588 301.306253785831 6.80295524441559
endloop
endfacet
facet normal -5.77673896298546e-014 2.40610154732806e-018 1.0
outer loop
vertex -1270.54310907588 301.306253785831 6.80295524441559
vertex -1277.33193447598 300.000992540523 6.80295524441545
vertex -1270.21173822598 301.051983989675 6.80295524441561
endloop
endfacet
facet normal -5.77673896298546e-014 2.40610154732806e-018 1.0
outer loop
vertex -1270.21173822598 301.051983989675 6.80295524441561
vertex -1277.33193447598 300.000992540523 6.80295524441545
vertex -1269.82584869815 300.892143313667 6.80295524441563
endloop
endfacet
facet normal -5.77673896298546e-014 2.40610154732806e-018 1.0
outer loop
vertex -1269.82584869815 300.892143313667 6.80295524441563
vertex -1277.33193447598 300.000992540523 6.80295524441545
vertex -1269.41173822598 300.83762463573 6.80295524441565
endloop
endfacet
facet normal -5.77673896298546e-014 2.40610154732806e-018 1.0
outer loop
vertex -1269.41173822598 300.83762463573 6.80295524441565
vertex -1277.33193447598 300.000992540523 6.80295524441545
vertex -1261.49154197598 300.000992540523 6.80295524441613
endloop
endfacet
facet normal -5.77673896298546e-014 2.40610154732806e-018 1.0
outer loop
vertex -1269.41173822598 300.83762463573 6.80295524441565
vertex -1261.49154197598 300.000992540523 6.80295524441613
vertex -1268.99762775382 300.892143313667 6.80295524441568
endloop
endfacet
facet normal -5.77673896298546e-014 2.40610154732806e-018 1.0
outer loop
vertex -1268.99762775382 300.892143313667 6.80295524441568
vertex -1261.49154197598 300.000992540523 6.80295524441613
vertex -1268.61173822598 301.051983989675 6.8029552444157
endloop
endfacet
facet normal -5.77673896298546e-014 2.40610154732806e-018 1.0
outer loop
vertex -1268.61173822598 301.051983989675 6.8029552444157
vertex -1261.49154197598 300.000992540523 6.80295524441613
vertex -1268.28036737608 301.306253785831 6.80295524441572
endloop
endfacet
facet normal -5.77673896298546e-014 2.40610154732806e-018 1.0
outer loop
vertex -1268.28036737608 301.306253785831 6.80295524441572
vertex -1261.49154197598 300.000992540523 6.80295524441613
vertex -1268.02609757993 301.63762463573 6.80295524441572
endloop
endfacet
facet normal -5.77673896298546e-014 2.40610154732806e-018 1.0
outer loop
vertex -1268.02609757993 301.63762463573 6.80295524441572
vertex -1261.49154197598 300.000992540523 6.80295524441613
vertex -1267.86625690392 302.023514163566 6.80295524441575
endloop
endfacet
facet normal -5.77673896298546e-014 2.40610154732806e-018 1.0
outer loop
vertex -1267.86625690392 302.023514163566 6.80295524441575
vertex -1261.49154197598 300.000992540523 6.80295524441613
vertex -1267.81173822598 302.43762463573 6.80295524441575
endloop
endfacet
facet normal -5.77673896298546e-014 2.40610154732806e-018 1.0
outer loop
vertex -1282.09443447598 271.425992540524 6.80295524441482
vertex -1269.82584869815 272.317143313667 6.80295524441561
vertex -1282.09443447598 276.299256730936 6.80295524441478
endloop
endfacet
facet normal -5.77673896298546e-014 2.40610154732806e-018 1.0
outer loop
vertex -1269.82584869815 272.317143313667 6.80295524441561
vertex -1282.09443447598 271.425992540524 6.80295524441482
vertex -1269.41173822598 272.26262463573 6.80295524441563
endloop
endfacet
facet normal -5.77673896298546e-014 2.40610154732806e-018 1.0
outer loop
vertex -1269.41173822598 272.26262463573 6.80295524441563
vertex -1282.09443447598 271.425992540524 6.80295524441482
vertex -1256.72904197598 271.425992540524 6.80295524441631
endloop
endfacet
facet normal -5.77673896298546e-014 2.40610154732806e-018 1.0
outer loop
vertex -1282.09443447598 276.299256730936 6.80295524441478
vertex -1269.82584869815 272.317143313667 6.80295524441561
vertex -1270.21173822598 272.476983989675 6.80295524441559
endloop
endfacet
facet normal -5.77673896298546e-014 2.40610154732806e-018 1.0
outer loop
vertex -1282.09443447598 276.299256730936 6.80295524441478
vertex -1270.21173822598 272.476983989675 6.80295524441559
vertex -1277.33193447598 276.188492540524 6.80295524441527
endloop
endfacet
facet normal -5.77673896298546e-014 2.40610154732806e-018 1.0
outer loop
vertex -1282.09443447598 276.299256730936 6.80295524441478
vertex -1277.33193447598 276.188492540524 6.80295524441527
vertex -1282.09443447598 282.649256730936 6.80295524441478
endloop
endfacet
facet normal -5.77673896298546e-014 2.40610154732806e-018 1.0
outer loop
vertex -1282.09443447598 282.649256730936 6.80295524441478
vertex -1277.33193447598 276.188492540524 6.80295524441527
vertex -1282.09443447598 293.761756730936 6.80295524441478
endloop
endfacet
facet normal -5.77673896298546e-014 2.40610154732806e-018 1.0
outer loop
vertex -1282.09443447598 293.761756730936 6.80295524441478
vertex -1277.33193447598 276.188492540524 6.80295524441527
vertex -1282.09443447598 304.763492540524 6.80295524441482
endloop
endfacet
facet normal -5.77673896298546e-014 2.40610154732806e-018 1.0
outer loop
vertex -1277.33193447598 276.188492540524 6.80295524441527
vertex -1270.21173822598 272.476983989675 6.80295524441559
vertex -1270.54310907588 272.731253785831 6.80295524441557
endloop
endfacet
facet normal -5.77673896298546e-014 2.40610154732806e-018 1.0
outer loop
vertex -1277.33193447598 276.188492540524 6.80295524441527
vertex -1270.54310907588 272.731253785831 6.80295524441557
vertex -1270.79737887204 273.06262463573 6.80295524441557
endloop
endfacet
facet normal -5.77673896298546e-014 2.40610154732806e-018 1.0
outer loop
vertex -1277.33193447598 276.188492540524 6.80295524441527
vertex -1270.79737887204 273.06262463573 6.80295524441557
vertex -1270.95721954805 273.448514163566 6.80295524441554
endloop
endfacet
facet normal -5.77673896298546e-014 2.40610154732806e-018 1.0
outer loop
vertex -1277.33193447598 276.188492540524 6.80295524441527
vertex -1270.95721954805 273.448514163566 6.80295524441554
vertex -1271.01173822598 273.86262463573 6.80295524441554
endloop
endfacet
facet normal -5.77673896298546e-014 2.40610154732806e-018 1.0
outer loop
vertex -1269.41173822598 272.26262463573 6.80295524441563
vertex -1256.72904197598 271.425992540524 6.80295524441631
vertex -1268.99762775382 272.317143313667 6.80295524441565
endloop
endfacet
facet normal -5.77673896298546e-014 2.40610154732806e-018 1.0
outer loop
vertex -1268.99762775382 272.317143313667 6.80295524441565
vertex -1256.72904197598 271.425992540524 6.80295524441631
vertex -1268.61173822598 272.476983989675 6.80295524441568
endloop
endfacet
facet normal -5.77673896298546e-014 2.40610154732806e-018 1.0
outer loop
vertex -1268.61173822598 272.476983989675 6.80295524441568
vertex -1256.72904197598 271.425992540524 6.80295524441631
vertex -1268.28036737608 272.731253785831 6.8029552444157
endloop
endfacet
facet normal -5.77673896298546e-014 2.40610154732806e-018 1.0
outer loop
vertex -1268.28036737608 272.731253785831 6.8029552444157
vertex -1256.72904197598 271.425992540524 6.80295524441631
vertex -1268.02609757993 273.06262463573 6.8029552444157
endloop
endfacet
facet normal -5.77673896298546e-014 2.40610154732806e-018 1.0
outer loop
vertex -1268.02609757993 273.06262463573 6.8029552444157
vertex -1256.72904197598 271.425992540524 6.80295524441631
vertex -1267.86625690392 273.448514163566 6.80295524441572
endloop
endfacet
facet normal -5.77673896298546e-014 2.40610154732806e-018 1.0
outer loop
vertex -1267.86625690392 273.448514163566 6.80295524441572
vertex -1256.72904197598 271.425992540524 6.80295524441631
vertex -1267.81173822598 273.86262463573 6.80295524441572
endloop
endfacet
facet normal -5.77673896298546e-014 2.40610154732806e-018 1.0
outer loop
vertex -1267.81173822598 273.86262463573 6.80295524441572
vertex -1256.72904197598 271.425992540524 6.80295524441631
vertex -1261.49154197598 276.188492540524 6.80295524441604
endloop
endfacet
facet normal -5.77673896298546e-014 2.40610154732806e-018 1.0
outer loop
vertex -1261.49154197598 276.188492540524 6.80295524441604
vertex -1256.72904197598 271.425992540524 6.80295524441631
vertex -1261.49154197598 300.000992540523 6.80295524441613
endloop
endfacet
facet normal -5.77673896298546e-014 2.40610154732806e-018 1.0
outer loop
vertex -1249.88125567158 276.299256730936 6.80295524441667
vertex -1256.72904197598 282.649256730936 6.80295524441626
vertex -1256.72904197598 276.299256730936 6.80295524441626
endloop
endfacet
facet normal -5.77673896298546e-014 2.40610154732806e-018 1.0
outer loop
vertex -1256.72904197598 282.649256730936 6.80295524441626
vertex -1249.88125567158 276.299256730936 6.80295524441667
vertex -1249.88125567158 282.649256730936 6.80295524441667
endloop
endfacet
facet normal -5.77673896298546e-014 2.40610154732806e-018 1.0
outer loop
vertex -1249.88125567158 293.761756730936 6.80295524441667
vertex -1256.72904197598 300.111756730936 6.80295524441626
vertex -1256.72904197598 293.761756730936 6.80295524441626
endloop
endfacet
facet normal -5.77673896298546e-014 2.40610154732806e-018 1.0
outer loop
vertex -1256.72904197598 300.111756730936 6.80295524441626
vertex -1249.88125567158 293.761756730936 6.80295524441667
vertex -1249.88125567158 300.111756730936 6.80295524441667
endloop
endfacet
facet normal -5.77673896298546e-014 2.40610154732806e-018 1.0
outer loop
vertex -1282.09443447598 304.763492540524 6.80295524441482
vertex -1269.41173822598 304.03762463573 6.80295524441565
vertex -1256.72904197598 304.763492540523 6.80295524441631
endloop
endfacet
facet normal -5.77673896298546e-014 2.40610154732806e-018 1.0
outer loop
vertex -1269.41173822598 304.03762463573 6.80295524441565
vertex -1282.09443447598 304.763492540524 6.80295524441482
vertex -1269.82584869815 303.983105957792 6.80295524441563
endloop
endfacet
facet normal -5.77673896298546e-014 2.40610154732806e-018 1.0
outer loop
vertex -1269.82584869815 303.983105957792 6.80295524441563
vertex -1282.09443447598 304.763492540524 6.80295524441482
vertex -1270.21173822598 303.823265281785 6.80295524441561
endloop
endfacet
facet normal -5.77673896298546e-014 2.40610154732806e-018 1.0
outer loop
vertex -1270.21173822598 303.823265281785 6.80295524441561
vertex -1282.09443447598 304.763492540524 6.80295524441482
vertex -1277.33193447598 300.000992540523 6.80295524441545
endloop
endfacet
facet normal -5.77673896298546e-014 2.40610154732806e-018 1.0
outer loop
vertex -1277.33193447598 300.000992540523 6.80295524441545
vertex -1282.09443447598 304.763492540524 6.80295524441482
vertex -1277.33193447598 276.188492540524 6.80295524441527
endloop
endfacet
facet normal -5.77673896298546e-014 2.40610154732806e-018 1.0
outer loop
vertex -1270.21173822598 303.823265281785 6.80295524441561
vertex -1277.33193447598 300.000992540523 6.80295524441545
vertex -1270.54310907588 303.568995485628 6.80295524441559
endloop
endfacet
facet normal -5.77673896298546e-014 2.40610154732806e-018 1.0
outer loop
vertex -1270.54310907588 303.568995485628 6.80295524441559
vertex -1277.33193447598 300.000992540523 6.80295524441545
vertex -1270.79737887204 303.23762463573 6.80295524441559
endloop
endfacet
facet normal -5.77673896298546e-014 2.40610154732806e-018 1.0
outer loop
vertex -1270.79737887204 303.23762463573 6.80295524441559
vertex -1277.33193447598 300.000992540523 6.80295524441545
vertex -1270.95721954805 302.851735107894 6.80295524441557
endloop
endfacet
facet normal -5.77673896298546e-014 2.40610154732806e-018 1.0
outer loop
vertex -1270.95721954805 302.851735107894 6.80295524441557
vertex -1277.33193447598 300.000992540523 6.80295524441545
vertex -1271.01173822598 302.43762463573 6.80295524441557
endloop
endfacet
facet normal -5.77673896298546e-014 2.40610154732806e-018 1.0
outer loop
vertex -1256.72904197598 304.763492540523 6.80295524441631
vertex -1269.41173822598 304.03762463573 6.80295524441565
vertex -1268.99762775382 303.983105957792 6.80295524441568
endloop
endfacet
facet normal -5.77673896298546e-014 2.40610154732806e-018 1.0
outer loop
vertex -1256.72904197598 304.763492540523 6.80295524441631
vertex -1268.99762775382 303.983105957792 6.80295524441568
vertex -1268.61173822598 303.823265281785 6.8029552444157
endloop
endfacet
facet normal -5.77673896298546e-014 2.40610154732806e-018 1.0
outer loop
vertex -1256.72904197598 304.763492540523 6.80295524441631
vertex -1268.61173822598 303.823265281785 6.8029552444157
vertex -1268.28036737608 303.568995485628 6.80295524441572
endloop
endfacet
facet normal -5.77673896298546e-014 2.40610154732806e-018 1.0
outer loop
vertex -1256.72904197598 304.763492540523 6.80295524441631
vertex -1268.28036737608 303.568995485628 6.80295524441572
vertex -1268.02609757993 303.23762463573 6.80295524441572
endloop
endfacet
facet normal -5.77673896298546e-014 2.40610154732806e-018 1.0
outer loop
vertex -1256.72904197598 304.763492540523 6.80295524441631
vertex -1268.02609757993 303.23762463573 6.80295524441572
vertex -1267.86625690392 302.851735107894 6.80295524441575
endloop
endfacet
facet normal -5.77673896298546e-014 2.40610154732806e-018 1.0
outer loop
vertex -1256.72904197598 304.763492540523 6.80295524441631
vertex -1267.86625690392 302.851735107894 6.80295524441575
vertex -1267.81173822598 302.43762463573 6.80295524441575
endloop
endfacet
facet normal -5.77673896298546e-014 2.40610154732806e-018 1.0
outer loop
vertex -1256.72904197598 304.763492540523 6.80295524441631
vertex -1267.81173822598 302.43762463573 6.80295524441575
vertex -1261.49154197598 300.000992540523 6.80295524441613
endloop
endfacet
facet normal -5.77673896298546e-014 2.40610154732806e-018 1.0
outer loop
vertex -1256.72904197598 304.763492540523 6.80295524441631
vertex -1261.49154197598 300.000992540523 6.80295524441613
vertex -1256.72904197598 271.425992540524 6.80295524441631
endloop
endfacet
facet normal -5.77673896298546e-014 2.40610154732806e-018 1.0
outer loop
vertex -1256.72904197598 304.763492540523 6.80295524441631
vertex -1256.72904197598 271.425992540524 6.80295524441631
vertex -1256.72904197598 276.299256730936 6.80295524441626
endloop
endfacet
facet normal -5.77673896298546e-014 2.40610154732806e-018 1.0
outer loop
vertex -1256.72904197598 304.763492540523 6.80295524441631
vertex -1256.72904197598 276.299256730936 6.80295524441626
vertex -1256.72904197598 282.649256730936 6.80295524441626
endloop
endfacet
facet normal -5.77673896298546e-014 2.40610154732806e-018 1.0
outer loop
vertex -1256.72904197598 304.763492540523 6.80295524441631
vertex -1256.72904197598 282.649256730936 6.80295524441626
vertex -1256.72904197598 293.761756730936 6.80295524441626
endloop
endfacet
facet normal -5.77673896298546e-014 2.40610154732806e-018 1.0
outer loop
vertex -1256.72904197598 304.763492540523 6.80295524441631
vertex -1256.72904197598 293.761756730936 6.80295524441626
vertex -1256.72904197598 300.111756730936 6.80295524441626
endloop
endfacet
facet normal -5.77673896298546e-014 2.40610154732806e-018 1.0
outer loop
vertex -1277.33193447598 276.188492540524 6.80295524441527
vertex -1269.41173822598 275.46262463573 6.80295524441563
vertex -1261.49154197598 276.188492540524 6.80295524441604
endloop
endfacet
facet normal -5.77673896298546e-014 2.40610154732806e-018 1.0
outer loop
vertex -1269.41173822598 275.46262463573 6.80295524441563
vertex -1277.33193447598 276.188492540524 6.80295524441527
vertex -1269.82584869815 275.408105957792 6.80295524441561
endloop
endfacet
facet normal -5.77673896298546e-014 2.40610154732806e-018 1.0
outer loop
vertex -1269.82584869815 275.408105957792 6.80295524441561
vertex -1277.33193447598 276.188492540524 6.80295524441527
vertex -1270.21173822598 275.248265281785 6.80295524441559
endloop
endfacet
facet normal -5.77673896298546e-014 2.40610154732806e-018 1.0
outer loop
vertex -1270.21173822598 275.248265281785 6.80295524441559
vertex -1277.33193447598 276.188492540524 6.80295524441527
vertex -1270.54310907588 274.993995485628 6.80295524441557
endloop
endfacet
facet normal -5.77673896298546e-014 2.40610154732806e-018 1.0
outer loop
vertex -1270.54310907588 274.993995485628 6.80295524441557
vertex -1277.33193447598 276.188492540524 6.80295524441527
vertex -1270.79737887204 274.66262463573 6.80295524441557
endloop
endfacet
facet normal -5.77673896298546e-014 2.40610154732806e-018 1.0
outer loop
vertex -1270.79737887204 274.66262463573 6.80295524441557
vertex -1277.33193447598 276.188492540524 6.80295524441527
vertex -1270.95721954805 274.276735107894 6.80295524441554
endloop
endfacet
facet normal -5.77673896298546e-014 2.40610154732806e-018 1.0
outer loop
vertex -1270.95721954805 274.276735107894 6.80295524441554
vertex -1277.33193447598 276.188492540524 6.80295524441527
vertex -1271.01173822598 273.86262463573 6.80295524441554
endloop
endfacet
facet normal -5.77673896298546e-014 2.40610154732806e-018 1.0
outer loop
vertex -1261.49154197598 276.188492540524 6.80295524441604
vertex -1269.41173822598 275.46262463573 6.80295524441563
vertex -1268.99762775382 275.408105957792 6.80295524441565
endloop
endfacet
facet normal -5.77673896298546e-014 2.40610154732806e-018 1.0
outer loop
vertex -1261.49154197598 276.188492540524 6.80295524441604
vertex -1268.99762775382 275.408105957792 6.80295524441565
vertex -1268.61173822598 275.248265281785 6.80295524441568
endloop
endfacet
facet normal -5.77673896298546e-014 2.40610154732806e-018 1.0
outer loop
vertex -1261.49154197598 276.188492540524 6.80295524441604
vertex -1268.61173822598 275.248265281785 6.80295524441568
vertex -1268.28036737608 274.993995485628 6.8029552444157
endloop
endfacet
facet normal -5.77673896298546e-014 2.40610154732806e-018 1.0
outer loop
vertex -1261.49154197598 276.188492540524 6.80295524441604
vertex -1268.28036737608 274.993995485628 6.8029552444157
vertex -1268.02609757993 274.66262463573 6.8029552444157
endloop
endfacet
facet normal -5.77673896298546e-014 2.40610154732806e-018 1.0
outer loop
vertex -1261.49154197598 276.188492540524 6.80295524441604
vertex -1268.02609757993 274.66262463573 6.8029552444157
vertex -1267.86625690392 274.276735107894 6.80295524441572
endloop
endfacet
facet normal -5.77673896298546e-014 2.40610154732806e-018 1.0
outer loop
vertex -1261.49154197598 276.188492540524 6.80295524441604
vertex -1267.86625690392 274.276735107894 6.80295524441572
vertex -1267.81173822598 273.86262463573 6.80295524441572
endloop
endfacet
facet normal -5.77673896298546e-014 2.40610154732806e-018 1.0
outer loop
vertex -1288.94222078038 293.761756730936 6.80295524441441
vertex -1282.09443447598 300.111756730936 6.80295524441478
vertex -1288.94222078038 300.111756730936 6.80295524441441
endloop
endfacet
facet normal -5.77673896298546e-014 2.40610154732806e-018 1.0
outer loop
vertex -1282.09443447598 300.111756730936 6.80295524441478
vertex -1288.94222078038 293.761756730936 6.80295524441441
vertex -1282.09443447598 293.761756730936 6.80295524441478
endloop
endfacet
facet normal -5.77673896298546e-014 2.40610154732806e-018 1.0
outer loop
vertex -1282.09443447598 300.111756730936 6.80295524441478
vertex -1282.09443447598 293.761756730936 6.80295524441478
vertex -1282.09443447598 304.763492540524 6.80295524441482
endloop
endfacet
facet normal -5.77673896298546e-014 2.40610154732806e-018 1.0
outer loop
vertex -1282.09443447598 276.299256730936 6.80295524441478
vertex -1288.94222078038 282.649256730936 6.80295524441441
vertex -1288.94222078038 276.299256730936 6.80295524441441
endloop
endfacet
facet normal -5.77673896298546e-014 2.40610154732806e-018 1.0
outer loop
vertex -1288.94222078038 282.649256730936 6.80295524441441
vertex -1282.09443447598 276.299256730936 6.80295524441478
vertex -1282.09443447598 282.649256730936 6.80295524441478
endloop
endfacet
facet normal 1.0 -3.45411585820856e-028 4.55740865974287e-014
outer loop
vertex -1277.33193447598 276.188492540524 -0.197044755584716
vertex -1277.33193447598 300.000992540523 6.80295524441545
vertex -1277.33193447598 276.188492540524 6.80295524441527
endloop
endfacet
facet normal 1.0 -3.45411585820856e-028 4.55740865974287e-014
outer loop
vertex -1277.33193447598 300.000992540523 6.80295524441545
vertex -1277.33193447598 276.188492540524 -0.197044755584716
vertex -1277.33193447598 300.000992540524 -0.197044755584535
endloop
endfacet
facet normal 1.0 -1.85171424974386e-014 5.77673896298546e-014
outer loop
vertex -1256.72904197598 276.299256730936 -0.197044755583723
vertex -1256.72904197598 271.425992540524 6.80295524441631
vertex -1256.72904197598 271.425992540524 -0.197044755583701
endloop
endfacet
facet normal 1.0 -1.85171424974386e-014 5.77673896298546e-014
outer loop
vertex -1256.72904197598 271.425992540524 6.80295524441631
vertex -1256.72904197598 276.299256730936 -0.197044755583723
vertex -1256.72904197598 276.299256730936 6.80295524441626
endloop
endfacet
facet normal 1.0 -1.85171424974386e-014 5.77673896298546e-014
outer loop
vertex -1256.72904197598 276.299256730936 6.80295524441626
vertex -1256.72904197598 276.299256730936 -0.197044755583723
vertex -1256.72904197598 276.299256730936 1.19983024441627
endloop
endfacet
facet normal 2.84838041233902e-015 1.0 5.68434188608101e-015
outer loop
vertex -1277.33193447598 276.188492540524 6.80295524441527
vertex -1261.49154197598 276.188492540524 -0.197044755583949
vertex -1277.33193447598 276.188492540524 -0.197044755584716
endloop
endfacet
facet normal 2.84838041233902e-015 1.0 5.68434188608101e-015
outer loop
vertex -1261.49154197598 276.188492540524 -0.197044755583949
vertex -1277.33193447598 276.188492540524 6.80295524441527
vertex -1261.49154197598 276.188492540524 6.80295524441604
endloop
endfacet
facet normal 6.58891234555249e-015 1.0 -2.40610154694743e-018
outer loop
vertex -1256.72904197598 282.649256730936 6.80295524441626
vertex -1249.88125567158 282.649256730936 1.19983024441666
vertex -1256.72904197598 282.649256730936 1.19983024441627
endloop
endfacet
facet normal 6.58891234555249e-015 1.0 -2.40610154694743e-018
outer loop
vertex -1249.88125567158 282.649256730936 1.19983024441666
vertex -1256.72904197598 282.649256730936 6.80295524441626
vertex -1249.88125567158 282.649256730936 6.80295524441667
endloop
endfacet
facet normal -1.0 1.06581410364015e-014 -5.77673896298546e-014
outer loop
vertex -1288.94222078038 282.649256730936 6.80295524441441
vertex -1288.94222078038 276.299256730936 1.19983024441443
vertex -1288.94222078038 276.299256730936 6.80295524441441
endloop
endfacet
facet normal -1.0 1.06581410364015e-014 -5.77673896298546e-014
outer loop
vertex -1288.94222078038 276.299256730936 1.19983024441443
vertex -1288.94222078038 282.649256730936 6.80295524441441
vertex -1288.94222078038 282.649256730936 1.19983024441443
endloop
endfacet
facet normal -3.55756085546607e-015 -1.0 2.40610154712255e-018
outer loop
vertex -1256.72904197598 271.425992540524 -0.197044755583701
vertex -1282.09443447598 271.425992540524 6.80295524441482
vertex -1282.09443447598 271.425992540524 -0.19704475558519
endloop
endfacet
facet normal -3.55756085546607e-015 -1.0 2.40610154712255e-018
outer loop
vertex -1282.09443447598 271.425992540524 6.80295524441482
vertex -1256.72904197598 271.425992540524 -0.197044755583701
vertex -1256.72904197598 271.425992540524 6.80295524441631
endloop
endfacet
facet normal 0.866025403784432 0.500000000000011 4.81998193351301e-014
outer loop
vertex -1270.79737887204 273.06262463573 -0.197044755584445
vertex -1270.54310907588 272.731253785831 6.80295524441557
vertex -1270.54310907588 272.731253785831 -0.197044755584445
endloop
endfacet
facet normal 0.707106781186533 0.707106781186562 3.93549876884673e-014
outer loop
vertex -1270.54310907588 272.731253785831 6.80295524441557
vertex -1270.79737887204 273.06262463573 -0.197044755584445
vertex -1270.79737887204 273.06262463573 6.80295524441557
endloop
endfacet
facet normal 0.866025403784432 -0.500000000000011 4.81998193351301e-014
outer loop
vertex -1270.79737887204 274.66262463573 -0.197044755584445
vertex -1270.95721954805 274.276735107894 6.80295524441554
vertex -1270.95721954805 274.276735107894 -0.197044755584445
endloop
endfacet
facet normal 0.965925826289069 -0.25881904510252 5.37599129480713e-014
outer loop
vertex -1270.95721954805 274.276735107894 6.80295524441554
vertex -1270.79737887204 274.66262463573 -0.197044755584445
vertex -1270.79737887204 274.66262463573 6.80295524441557
endloop
endfacet
facet normal -0.258819045102535 0.965925826289064 -1.4404925259604e-014
outer loop
vertex -1268.99762775382 272.317143313667 6.80295524441565
vertex -1268.61173822598 272.476983989675 -0.19704475558431
vertex -1268.99762775382 272.317143313667 -0.197044755584355
endloop
endfacet
facet normal -0.500000000000024 0.866025403784425 -2.78281786680302e-014
outer loop
vertex -1268.61173822598 272.476983989675 -0.19704475558431
vertex -1268.99762775382 272.317143313667 6.80295524441565
vertex -1268.61173822598 272.476983989675 6.80295524441568
endloop
endfacet
facet normal -0.866025403784433 -0.500000000000009 -4.81998193351302e-014
outer loop
vertex -1268.02609757993 274.66262463573 6.8029552444157
vertex -1267.86625690392 274.276735107894 -0.197044755584265
vertex -1267.86625690392 274.276735107894 6.80295524441572
endloop
endfacet
facet normal -0.965925826289068 -0.258819045102522 -5.37599129480713e-014
outer loop
vertex -1267.86625690392 274.276735107894 -0.197044755584265
vertex -1268.02609757993 274.66262463573 6.8029552444157
vertex -1268.02609757993 274.66262463573 -0.19704475558431
endloop
endfacet
facet normal -0.965925826289069 -0.258819045102518 -5.37599129480713e-014
outer loop
vertex -1267.86625690392 274.276735107894 6.80295524441572
vertex -1267.81173822598 273.86262463573 -0.197044755584265
vertex -1267.81173822598 273.86262463573 6.80295524441572
endloop
endfacet
facet normal -1.0 7.05759903735239e-015 -5.56563573360578e-014
outer loop
vertex -1267.81173822598 273.86262463573 -0.197044755584265
vertex -1267.86625690392 274.276735107894 6.80295524441572
vertex -1267.86625690392 274.276735107894 -0.197044755584265
endloop
endfacet
facet normal 0.965925826289068 -0.258819045102521 5.37599129480713e-014
outer loop
vertex -1270.95721954805 274.276735107894 -0.197044755584445
vertex -1271.01173822598 273.86262463573 6.80295524441554
vertex -1271.01173822598 273.86262463573 -0.197044755584445
endloop
endfacet
facet normal 1.0 0.0 5.56563573360578e-014
outer loop
vertex -1271.01173822598 273.86262463573 6.80295524441554
vertex -1270.95721954805 274.276735107894 -0.197044755584445
vertex -1270.95721954805 274.276735107894 6.80295524441554
endloop
endfacet
facet normal -0.707106781186532 -0.707106781186563 -3.93549876884673e-014
outer loop
vertex -1268.28036737608 274.993995485628 6.8029552444157
vertex -1268.02609757993 274.66262463573 -0.19704475558431
vertex -1268.02609757993 274.66262463573 6.8029552444157
endloop
endfacet
facet normal -0.866025403784432 -0.500000000000011 -4.81998193351301e-014
outer loop
vertex -1268.02609757993 274.66262463573 -0.19704475558431
vertex -1268.28036737608 274.993995485628 6.8029552444157
vertex -1268.28036737608 274.993995485628 -0.19704475558431
endloop
endfacet
facet normal -0.707106781186532 -0.707106781186563 -3.93549876884673e-014
outer loop
vertex -1268.28036737608 274.993995485628 6.8029552444157
vertex -1268.61173822598 275.248265281785 -0.19704475558431
vertex -1268.28036737608 274.993995485628 -0.19704475558431
endloop
endfacet
facet normal -0.500000000000024 -0.866025403784425 -2.78281786680303e-014
outer loop
vertex -1268.61173822598 275.248265281785 -0.19704475558431
vertex -1268.28036737608 274.993995485628 6.8029552444157
vertex -1268.61173822598 275.248265281785 6.80295524441568
endloop
endfacet
facet normal 0.707106781186533 -0.707106781186562 3.93549876884673e-014
outer loop
vertex -1270.54310907588 274.993995485628 -0.197044755584445
vertex -1270.79737887204 274.66262463573 6.80295524441557
vertex -1270.79737887204 274.66262463573 -0.197044755584445
endloop
endfacet
facet normal 0.866025403784433 -0.500000000000009 4.81998193351302e-014
outer loop
vertex -1270.79737887204 274.66262463573 6.80295524441557
vertex -1270.54310907588 274.993995485628 -0.197044755584445
vertex -1270.54310907588 274.993995485628 6.80295524441557
endloop
endfacet
facet normal -0.258819045102535 -0.965925826289064 -1.4404925259604e-014
outer loop
vertex -1268.99762775382 275.408105957792 6.80295524441565
vertex -1269.41173822598 275.46262463573 -0.197044755584355
vertex -1268.99762775382 275.408105957792 -0.197044755584355
endloop
endfacet
facet normal 2.49511077078103e-016 -1.0 7.09153133238099e-030
outer loop
vertex -1269.41173822598 275.46262463573 -0.197044755584355
vertex -1268.99762775382 275.408105957792 6.80295524441565
vertex -1269.41173822598 275.46262463573 6.80295524441563
endloop
endfacet
facet normal 2.49511077078103e-016 -1.0 7.09153133238099e-030
outer loop
vertex -1269.41173822598 275.46262463573 -0.197044755584355
vertex -1269.82584869815 275.408105957792 6.80295524441561
vertex -1269.82584869815 275.408105957792 -0.1970447555844
endloop
endfacet
facet normal 0.258819045102534 -0.965925826289064 1.44049252596039e-014
outer loop
vertex -1269.82584869815 275.408105957792 6.80295524441561
vertex -1269.41173822598 275.46262463573 -0.197044755584355
vertex -1269.41173822598 275.46262463573 6.80295524441563
endloop
endfacet
facet normal -0.500000000000026 -0.866025403784424 -2.78281786680303e-014
outer loop
vertex -1268.61173822598 303.823265281785 6.8029552444157
vertex -1268.99762775382 303.983105957792 -0.19704475558431
vertex -1268.61173822598 303.823265281785 -0.19704475558431
endloop
endfacet
facet normal -0.258819045102535 -0.965925826289065 -1.44049252596039e-014
outer loop
vertex -1268.99762775382 303.983105957792 -0.19704475558431
vertex -1268.61173822598 303.823265281785 6.8029552444157
vertex -1268.99762775382 303.983105957792 6.80295524441568
endloop
endfacet
facet normal 1.0 0.0 5.56563573360578e-014
outer loop
vertex -1271.01173822598 273.86262463573 -0.197044755584445
vertex -1270.95721954805 273.448514163566 6.80295524441554
vertex -1270.95721954805 273.448514163566 -0.197044755584445
endloop
endfacet
facet normal 0.965925826289069 0.25881904510252 5.37599129480713e-014
outer loop
vertex -1270.95721954805 273.448514163566 6.80295524441554
vertex -1271.01173822598 273.86262463573 -0.197044755584445
vertex -1271.01173822598 273.86262463573 6.80295524441554
endloop
endfacet
facet normal -0.258819045102535 -0.965925826289065 -1.44049252596039e-014
outer loop
vertex -1268.99762775382 303.983105957792 -0.19704475558431
vertex -1269.41173822598 304.03762463573 6.80295524441565
vertex -1269.41173822598 304.03762463573 -0.197044755584355
endloop
endfacet
facet normal -2.40599967182465e-016 -1.0 -1.97549801402049e-029
outer loop
vertex -1269.41173822598 304.03762463573 6.80295524441565
vertex -1268.99762775382 303.983105957792 -0.19704475558431
vertex -1268.99762775382 303.983105957792 6.80295524441568
endloop
endfacet
facet normal -0.500000000000026 0.866025403784424 -2.78281786680303e-014
outer loop
vertex -1268.61173822598 272.476983989675 6.80295524441568
vertex -1268.28036737608 272.731253785831 -0.19704475558431
vertex -1268.61173822598 272.476983989675 -0.19704475558431
endloop
endfacet
facet normal -0.707106781186534 0.70710678118656 -3.93549876884674e-014
outer loop
vertex -1268.28036737608 272.731253785831 -0.19704475558431
vertex -1268.61173822598 272.476983989675 6.80295524441568
vertex -1268.28036737608 272.731253785831 6.8029552444157
endloop
endfacet
facet normal 0.258819045102535 -0.965925826289064 1.4404925259604e-014
outer loop
vertex -1269.82584869815 303.983105957792 -0.197044755584355
vertex -1270.21173822598 303.823265281785 6.80295524441561
vertex -1270.21173822598 303.823265281785 -0.1970447555844
endloop
endfacet
facet normal 0.500000000000024 -0.866025403784425 2.78281786680303e-014
outer loop
vertex -1270.21173822598 303.823265281785 6.80295524441561
vertex -1269.82584869815 303.983105957792 -0.197044755584355
vertex -1269.82584869815 303.983105957792 6.80295524441563
endloop
endfacet
facet normal 0.500000000000024 -0.866025403784425 2.78281786680303e-014
outer loop
vertex -1270.21173822598 303.823265281785 6.80295524441561
vertex -1270.54310907588 303.568995485628 -0.1970447555844
vertex -1270.21173822598 303.823265281785 -0.1970447555844
endloop
endfacet
facet normal 0.70710678118653 -0.707106781186565 3.93549876884672e-014
outer loop
vertex -1270.54310907588 303.568995485628 -0.1970447555844
vertex -1270.21173822598 303.823265281785 6.80295524441561
vertex -1270.54310907588 303.568995485628 6.80295524441559
endloop
endfacet
facet normal -0.707106781186531 -0.707106781186564 -3.93549876884673e-014
outer loop
vertex -1268.28036737608 303.568995485628 -0.197044755584265
vertex -1268.61173822598 303.823265281785 6.8029552444157
vertex -1268.61173822598 303.823265281785 -0.19704475558431
endloop
endfacet
facet normal -0.500000000000026 -0.866025403784424 -2.78281786680303e-014
outer loop
vertex -1268.61173822598 303.823265281785 6.8029552444157
vertex -1268.28036737608 303.568995485628 -0.197044755584265
vertex -1268.28036737608 303.568995485628 6.80295524441572
endloop
endfacet
facet normal 0.70710678118653 -0.707106781186565 3.93549876884672e-014
outer loop
vertex -1270.54310907588 303.568995485628 -0.1970447555844
vertex -1270.79737887204 303.23762463573 6.80295524441559
vertex -1270.79737887204 303.23762463573 -0.1970447555844
endloop
endfacet
facet normal 0.866025403784433 -0.500000000000009 4.81998193351302e-014
outer loop
vertex -1270.79737887204 303.23762463573 6.80295524441559
vertex -1270.54310907588 303.568995485628 -0.1970447555844
vertex -1270.54310907588 303.568995485628 6.80295524441559
endloop
endfacet
facet normal 0.866025403784435 -0.500000000000007 4.81998193351303e-014
outer loop
vertex -1270.79737887204 303.23762463573 -0.1970447555844
vertex -1270.95721954805 302.851735107894 6.80295524441557
vertex -1270.95721954805 302.851735107894 -0.197044755584445
endloop
endfacet
facet normal 0.965925826289068 -0.25881904510252 5.37599129480713e-014
outer loop
vertex -1270.95721954805 302.851735107894 6.80295524441557
vertex -1270.79737887204 303.23762463573 -0.1970447555844
vertex -1270.79737887204 303.23762463573 6.80295524441559
endloop
endfacet
facet normal -0.965925826289072 0.258819045102505 -5.37599129480715e-014
outer loop
vertex -1267.86625690392 273.448514163566 6.80295524441572
vertex -1268.02609757993 273.06262463573 -0.19704475558431
vertex -1268.02609757993 273.06262463573 6.8029552444157
endloop
endfacet
facet normal -0.866025403784442 0.499999999999993 -4.81998193351307e-014
outer loop
vertex -1268.02609757993 273.06262463573 -0.19704475558431
vertex -1267.86625690392 273.448514163566 6.80295524441572
vertex -1267.86625690392 273.448514163566 -0.197044755584265
endloop
endfacet
facet normal 0.965925826289068 0.258819045102521 5.37599129480713e-014
outer loop
vertex -1270.95721954805 273.448514163566 -0.197044755584445
vertex -1270.79737887204 273.06262463573 6.80295524441557
vertex -1270.79737887204 273.06262463573 -0.197044755584445
endloop
endfacet
facet normal 0.866025403784433 0.500000000000009 4.81998193351302e-014
outer loop
vertex -1270.79737887204 273.06262463573 6.80295524441557
vertex -1270.95721954805 273.448514163566 -0.197044755584445
vertex -1270.95721954805 273.448514163566 6.80295524441554
endloop
endfacet
facet normal 0.500000000000025 -0.866025403784424 2.78281786680303e-014
outer loop
vertex -1270.21173822598 275.248265281785 -0.1970447555844
vertex -1270.54310907588 274.993995485628 6.80295524441557
vertex -1270.54310907588 274.993995485628 -0.197044755584445
endloop
endfacet
facet normal 0.707106781186533 -0.707106781186562 3.93549876884673e-014
outer loop
vertex -1270.54310907588 274.993995485628 6.80295524441557
vertex -1270.21173822598 275.248265281785 -0.1970447555844
vertex -1270.21173822598 275.248265281785 6.80295524441559
endloop
endfacet
facet normal 0.707106781186533 0.707106781186562 3.93549876884673e-014
outer loop
vertex -1270.54310907588 272.731253785831 6.80295524441557
vertex -1270.21173822598 272.476983989675 -0.1970447555844
vertex -1270.54310907588 272.731253785831 -0.197044755584445
endloop
endfacet
facet normal 0.500000000000025 0.866025403784424 2.78281786680303e-014
outer loop
vertex -1270.21173822598 272.476983989675 -0.1970447555844
vertex -1270.54310907588 272.731253785831 6.80295524441557
vertex -1270.21173822598 272.476983989675 6.80295524441559
endloop
endfacet
facet normal 0.500000000000024 0.866025403784425 2.78281786680303e-014
outer loop
vertex -1270.21173822598 272.476983989675 6.80295524441559
vertex -1269.82584869815 272.317143313667 -0.1970447555844
vertex -1270.21173822598 272.476983989675 -0.1970447555844
endloop
endfacet
facet normal 0.258819045102535 0.965925826289064 1.4404925259604e-014
outer loop
vertex -1269.82584869815 272.317143313667 -0.1970447555844
vertex -1270.21173822598 272.476983989675 6.80295524441559
vertex -1269.82584869815 272.317143313667 6.80295524441561
endloop
endfacet
facet normal -2.40599967182465e-016 1.0 -7.09153133238124e-030
outer loop
vertex -1269.41173822598 272.26262463573 6.80295524441563
vertex -1268.99762775382 272.317143313667 -0.197044755584355
vertex -1269.41173822598 272.26262463573 -0.197044755584355
endloop
endfacet
facet normal -0.258819045102535 0.965925826289065 -1.44049252596039e-014
outer loop
vertex -1268.99762775382 272.317143313667 -0.197044755584355
vertex -1269.41173822598 272.26262463573 6.80295524441563
vertex -1268.99762775382 272.317143313667 6.80295524441565
endloop
endfacet
facet normal -1.0 7.05759903735233e-015 -5.56563573360578e-014
outer loop
vertex -1267.81173822598 273.86262463573 6.80295524441572
vertex -1267.86625690392 273.448514163566 -0.197044755584265
vertex -1267.86625690392 273.448514163566 6.80295524441572
endloop
endfacet
facet normal -0.965925826289071 0.258819045102509 -5.37599129480715e-014
outer loop
vertex -1267.86625690392 273.448514163566 -0.197044755584265
vertex -1267.81173822598 273.86262463573 6.80295524441572
vertex -1267.81173822598 273.86262463573 -0.197044755584265
endloop
endfacet
facet normal -2.40599967182465e-016 -1.0 -1.97549801402049e-029
outer loop
vertex -1269.41173822598 304.03762463573 6.80295524441565
vertex -1269.82584869815 303.983105957792 -0.197044755584355
vertex -1269.41173822598 304.03762463573 -0.197044755584355
endloop
endfacet
facet normal 0.258819045102535 -0.965925826289064 1.4404925259604e-014
outer loop
vertex -1269.82584869815 303.983105957792 -0.197044755584355
vertex -1269.41173822598 304.03762463573 6.80295524441565
vertex -1269.82584869815 303.983105957792 6.80295524441563
endloop
endfacet
facet normal -0.866025403784444 0.499999999999991 -4.81998193351308e-014
outer loop
vertex -1268.02609757993 273.06262463573 6.8029552444157
vertex -1268.28036737608 272.731253785831 -0.19704475558431
vertex -1268.28036737608 272.731253785831 6.8029552444157
endloop
endfacet
facet normal -0.707106781186534 0.70710678118656 -3.93549876884674e-014
outer loop
vertex -1268.28036737608 272.731253785831 -0.19704475558431
vertex -1268.02609757993 273.06262463573 6.8029552444157
vertex -1268.02609757993 273.06262463573 -0.19704475558431
endloop
endfacet
facet normal 0.258819045102534 0.965925826289064 1.44049252596039e-014
outer loop
vertex -1269.82584869815 272.317143313667 6.80295524441561
vertex -1269.41173822598 272.26262463573 -0.197044755584355
vertex -1269.82584869815 272.317143313667 -0.1970447555844
endloop
endfacet
facet normal 2.49511077078103e-016 1.0 1.97549801402042e-029
outer loop
vertex -1269.41173822598 272.26262463573 -0.197044755584355
vertex -1269.82584869815 272.317143313667 6.80295524441561
vertex -1269.41173822598 272.26262463573 6.80295524441563
endloop
endfacet
facet normal -0.500000000000024 -0.866025403784425 -2.78281786680303e-014
outer loop
vertex -1268.61173822598 275.248265281785 -0.19704475558431
vertex -1268.99762775382 275.408105957792 6.80295524441565
vertex -1268.99762775382 275.408105957792 -0.197044755584355
endloop
endfacet
facet normal -0.258819045102535 -0.965925826289064 -1.4404925259604e-014
outer loop
vertex -1268.99762775382 275.408105957792 6.80295524441565
vertex -1268.61173822598 275.248265281785 -0.19704475558431
vertex -1268.61173822598 275.248265281785 6.80295524441568
endloop
endfacet
facet normal 0.258819045102534 -0.965925826289064 1.44049252596039e-014
outer loop
vertex -1269.82584869815 275.408105957792 6.80295524441561
vertex -1270.21173822598 275.248265281785 -0.1970447555844
vertex -1269.82584869815 275.408105957792 -0.1970447555844
endloop
endfacet
facet normal 0.500000000000025 -0.866025403784424 2.78281786680303e-014
outer loop
vertex -1270.21173822598 275.248265281785 -0.1970447555844
vertex -1269.82584869815 275.408105957792 6.80295524441561
vertex -1270.21173822598 275.248265281785 6.80295524441559
endloop
endfacet
facet normal 5.86997541151902e-014 -3.69794670925069e-018 -1.0
outer loop
vertex -1277.33193447598 276.188492540524 -0.197044755584716
vertex -1270.95721954805 274.276735107894 -0.197044755584445
vertex -1271.01173822598 273.86262463573 -0.197044755584445
endloop
endfacet
facet normal 5.86997541151902e-014 -3.69794670925069e-018 -1.0
outer loop
vertex -1270.95721954805 274.276735107894 -0.197044755584445
vertex -1277.33193447598 276.188492540524 -0.197044755584716
vertex -1270.79737887204 274.66262463573 -0.197044755584445
endloop
endfacet
facet normal 5.86997541151902e-014 -3.69794670925069e-018 -1.0
outer loop
vertex -1270.79737887204 274.66262463573 -0.197044755584445
vertex -1277.33193447598 276.188492540524 -0.197044755584716
vertex -1270.54310907588 274.993995485628 -0.197044755584445
endloop
endfacet
facet normal 5.86997541151902e-014 -3.69794670925069e-018 -1.0
outer loop
vertex -1270.54310907588 274.993995485628 -0.197044755584445
vertex -1277.33193447598 276.188492540524 -0.197044755584716
vertex -1270.21173822598 275.248265281785 -0.1970447555844
endloop
endfacet
facet normal 5.86997541151902e-014 -3.69794670925069e-018 -1.0
outer loop
vertex -1270.21173822598 275.248265281785 -0.1970447555844
vertex -1277.33193447598 276.188492540524 -0.197044755584716
vertex -1269.82584869815 275.408105957792 -0.1970447555844
endloop
endfacet
facet normal 5.86997541151902e-014 -3.69794670925069e-018 -1.0
outer loop
vertex -1269.82584869815 275.408105957792 -0.1970447555844
vertex -1277.33193447598 276.188492540524 -0.197044755584716
vertex -1269.41173822598 275.46262463573 -0.197044755584355
endloop
endfacet
facet normal 5.86997541151902e-014 -3.69794670925069e-018 -1.0
outer loop
vertex -1269.41173822598 275.46262463573 -0.197044755584355
vertex -1277.33193447598 276.188492540524 -0.197044755584716
vertex -1261.49154197598 276.188492540524 -0.197044755583949
endloop
endfacet
facet normal 5.86997541151902e-014 -3.69794670925069e-018 -1.0
outer loop
vertex -1269.41173822598 275.46262463573 -0.197044755584355
vertex -1261.49154197598 276.188492540524 -0.197044755583949
vertex -1268.99762775382 275.408105957792 -0.197044755584355
endloop
endfacet
facet normal 5.86997541151902e-014 -3.69794670925069e-018 -1.0
outer loop
vertex -1268.99762775382 275.408105957792 -0.197044755584355
vertex -1261.49154197598 276.188492540524 -0.197044755583949
vertex -1268.61173822598 275.248265281785 -0.19704475558431
endloop
endfacet
facet normal 5.86997541151902e-014 -3.69794670925069e-018 -1.0
outer loop
vertex -1268.61173822598 275.248265281785 -0.19704475558431
vertex -1261.49154197598 276.188492540524 -0.197044755583949
vertex -1268.28036737608 274.993995485628 -0.19704475558431
endloop
endfacet
facet normal 5.86997541151902e-014 -3.69794670925069e-018 -1.0
outer loop
vertex -1268.28036737608 274.993995485628 -0.19704475558431
vertex -1261.49154197598 276.188492540524 -0.197044755583949
vertex -1268.02609757993 274.66262463573 -0.19704475558431
endloop
endfacet
facet normal 5.86997541151902e-014 -3.69794670925069e-018 -1.0
outer loop
vertex -1268.02609757993 274.66262463573 -0.19704475558431
vertex -1261.49154197598 276.188492540524 -0.197044755583949
vertex -1267.86625690392 274.276735107894 -0.197044755584265
endloop
endfacet
facet normal 5.86997541151902e-014 -3.69794670925069e-018 -1.0
outer loop
vertex -1267.86625690392 274.276735107894 -0.197044755584265
vertex -1261.49154197598 276.188492540524 -0.197044755583949
vertex -1267.81173822598 273.86262463573 -0.197044755584265
endloop
endfacet
facet normal 5.86997541151902e-014 -3.69794670925069e-018 -1.0
outer loop
vertex -1282.09443447598 304.763492540524 -0.19704475558519
vertex -1269.82584869815 303.983105957792 -0.197044755584355
vertex -1282.09443447598 300.111756730936 -0.197044755585212
endloop
endfacet
facet normal 5.86997541151902e-014 -3.69794670925069e-018 -1.0
outer loop
vertex -1269.82584869815 303.983105957792 -0.197044755584355
vertex -1282.09443447598 304.763492540524 -0.19704475558519
vertex -1269.41173822598 304.03762463573 -0.197044755584355
endloop
endfacet
facet normal 5.86997541151902e-014 -3.69794670925069e-018 -1.0
outer loop
vertex -1269.41173822598 304.03762463573 -0.197044755584355
vertex -1282.09443447598 304.763492540524 -0.19704475558519
vertex -1256.72904197598 304.763492540523 -0.197044755583701
endloop
endfacet
facet normal 5.86997541151902e-014 -3.69794670925069e-018 -1.0
outer loop
vertex -1282.09443447598 300.111756730936 -0.197044755585212
vertex -1269.82584869815 303.983105957792 -0.197044755584355
vertex -1270.21173822598 303.823265281785 -0.1970447555844
endloop
endfacet
facet normal 5.86997541151902e-014 -3.69794670925069e-018 -1.0
outer loop
vertex -1282.09443447598 300.111756730936 -0.197044755585212
vertex -1270.21173822598 303.823265281785 -0.1970447555844
vertex -1277.33193447598 300.000992540524 -0.197044755584535
endloop
endfacet
facet normal 5.86997541151902e-014 -3.69794670925069e-018 -1.0
outer loop
vertex -1282.09443447598 300.111756730936 -0.197044755585212
vertex -1277.33193447598 300.000992540524 -0.197044755584535
vertex -1282.09443447598 293.761756730936 -0.197044755585212
endloop
endfacet
facet normal 5.86997541151902e-014 -3.69794670925069e-018 -1.0
outer loop
vertex -1282.09443447598 293.761756730936 -0.197044755585212
vertex -1277.33193447598 300.000992540524 -0.197044755584535
vertex -1282.09443447598 282.649256730936 -0.197044755585212
endloop
endfacet
facet normal 5.86997541151902e-014 -3.69794670925069e-018 -1.0
outer loop
vertex -1277.33193447598 300.000992540524 -0.197044755584535
vertex -1270.21173822598 303.823265281785 -0.1970447555844
vertex -1270.54310907588 303.568995485628 -0.1970447555844
endloop
endfacet
facet normal 5.86997541151902e-014 -3.69794670925069e-018 -1.0
outer loop
vertex -1277.33193447598 300.000992540524 -0.197044755584535
vertex -1270.54310907588 303.568995485628 -0.1970447555844
vertex -1270.79737887204 303.23762463573 -0.1970447555844
endloop
endfacet
facet normal 5.86997541151902e-014 -3.69794670925069e-018 -1.0
outer loop
vertex -1277.33193447598 300.000992540524 -0.197044755584535
vertex -1270.79737887204 303.23762463573 -0.1970447555844
vertex -1270.95721954805 302.851735107894 -0.197044755584445
endloop
endfacet
facet normal 5.86997541151902e-014 -3.69794670925069e-018 -1.0
outer loop
vertex -1277.33193447598 300.000992540524 -0.197044755584535
vertex -1270.95721954805 302.851735107894 -0.197044755584445
vertex -1271.01173822598 302.43762463573 -0.197044755584445
endloop
endfacet
facet normal 5.86997541151902e-014 -3.69794670925069e-018 -1.0
outer loop
vertex -1269.41173822598 304.03762463573 -0.197044755584355
vertex -1256.72904197598 304.763492540523 -0.197044755583701
vertex -1268.99762775382 303.983105957792 -0.19704475558431
endloop
endfacet
facet normal 5.86997541151902e-014 -3.69794670925069e-018 -1.0
outer loop
vertex -1268.99762775382 303.983105957792 -0.19704475558431
vertex -1256.72904197598 304.763492540523 -0.197044755583701
vertex -1268.61173822598 303.823265281785 -0.19704475558431
endloop
endfacet
facet normal 5.86997541151902e-014 -3.69794670925069e-018 -1.0
outer loop
vertex -1268.61173822598 303.823265281785 -0.19704475558431
vertex -1256.72904197598 304.763492540523 -0.197044755583701
vertex -1268.28036737608 303.568995485628 -0.197044755584265
endloop
endfacet
facet normal 5.86997541151902e-014 -3.69794670925069e-018 -1.0
outer loop
vertex -1268.28036737608 303.568995485628 -0.197044755584265
vertex -1256.72904197598 304.763492540523 -0.197044755583701
vertex -1268.02609757993 303.23762463573 -0.197044755584265
endloop
endfacet
facet normal 5.86997541151902e-014 -3.69794670925069e-018 -1.0
outer loop
vertex -1268.02609757993 303.23762463573 -0.197044755584265
vertex -1256.72904197598 304.763492540523 -0.197044755583701
vertex -1267.86625690392 302.851735107894 -0.197044755584265
endloop
endfacet
facet normal 5.86997541151902e-014 -3.69794670925069e-018 -1.0
outer loop
vertex -1267.86625690392 302.851735107894 -0.197044755584265
vertex -1256.72904197598 304.763492540523 -0.197044755583701
vertex -1267.81173822598 302.43762463573 -0.197044755584265
endloop
endfacet
facet normal 5.86997541151902e-014 -3.69794670925069e-018 -1.0
outer loop
vertex -1267.81173822598 302.43762463573 -0.197044755584265
vertex -1256.72904197598 304.763492540523 -0.197044755583701
vertex -1261.49154197598 300.000992540524 -0.197044755583859
endloop
endfacet
facet normal 5.86997541151902e-014 -3.69794670925069e-018 -1.0
outer loop
vertex -1261.49154197598 300.000992540524 -0.197044755583859
vertex -1256.72904197598 304.763492540523 -0.197044755583701
vertex -1261.49154197598 276.188492540524 -0.197044755583949
endloop
endfacet
facet normal 5.86997541151902e-014 -3.69794670925069e-018 -1.0
outer loop
vertex -1261.49154197598 276.188492540524 -0.197044755583949
vertex -1256.72904197598 304.763492540523 -0.197044755583701
vertex -1256.72904197598 271.425992540524 -0.197044755583701
endloop
endfacet
facet normal 5.86997541151902e-014 -3.69794670925069e-018 -1.0
outer loop
vertex -1256.72904197598 271.425992540524 -0.197044755583701
vertex -1256.72904197598 304.763492540523 -0.197044755583701
vertex -1256.72904197598 276.299256730936 -0.197044755583723
endloop
endfacet
facet normal 5.86997541151902e-014 -3.69794670925069e-018 -1.0
outer loop
vertex -1256.72904197598 276.299256730936 -0.197044755583723
vertex -1256.72904197598 304.763492540523 -0.197044755583701
vertex -1256.72904197598 300.111756730936 -0.197044755583723
endloop
endfacet
facet normal 5.86997541151902e-014 -3.69794670925069e-018 -1.0
outer loop
vertex -1256.72904197598 276.299256730936 -0.197044755583723
vertex -1256.72904197598 300.111756730936 -0.197044755583723
vertex -1256.72904197598 293.761756730936 -0.197044755583723
endloop
endfacet
facet normal 5.86997541151902e-014 -3.69794670925069e-018 -1.0
outer loop
vertex -1256.72904197598 276.299256730936 -0.197044755583723
vertex -1256.72904197598 293.761756730936 -0.197044755583723
vertex -1256.72904197598 282.649256730936 -0.197044755583723
endloop
endfacet
facet normal 5.86997541151902e-014 -3.69794670925069e-018 -1.0
outer loop
vertex -1282.09443447598 282.649256730936 -0.197044755585212
vertex -1282.09443447598 271.425992540524 -0.19704475558519
vertex -1282.09443447598 276.299256730936 -0.197044755585212
endloop
endfacet
facet normal 5.86997541151902e-014 -3.69794670925069e-018 -1.0
outer loop
vertex -1282.09443447598 271.425992540524 -0.19704475558519
vertex -1282.09443447598 282.649256730936 -0.197044755585212
vertex -1277.33193447598 276.188492540524 -0.197044755584716
endloop
endfacet
facet normal 5.86997541151902e-014 -3.69794670925069e-018 -1.0
outer loop
vertex -1282.09443447598 271.425992540524 -0.19704475558519
vertex -1277.33193447598 276.188492540524 -0.197044755584716
vertex -1270.21173822598 272.476983989675 -0.1970447555844
endloop
endfacet
facet normal 5.86997541151902e-014 -3.69794670925069e-018 -1.0
outer loop
vertex -1282.09443447598 271.425992540524 -0.19704475558519
vertex -1270.21173822598 272.476983989675 -0.1970447555844
vertex -1269.82584869815 272.317143313667 -0.1970447555844
endloop
endfacet
facet normal 5.86997541151902e-014 -3.69794670925069e-018 -1.0
outer loop
vertex -1282.09443447598 271.425992540524 -0.19704475558519
vertex -1269.82584869815 272.317143313667 -0.1970447555844
vertex -1269.41173822598 272.26262463573 -0.197044755584355
endloop
endfacet
facet normal 5.86997541151902e-014 -3.69794670925069e-018 -1.0
outer loop
vertex -1282.09443447598 271.425992540524 -0.19704475558519
vertex -1269.41173822598 272.26262463573 -0.197044755584355
vertex -1256.72904197598 271.425992540524 -0.197044755583701
endloop
endfacet
facet normal 5.86997541151902e-014 -3.69794670925069e-018 -1.0
outer loop
vertex -1277.33193447598 276.188492540524 -0.197044755584716
vertex -1282.09443447598 282.649256730936 -0.197044755585212
vertex -1277.33193447598 300.000992540524 -0.197044755584535
endloop
endfacet
facet normal 5.86997541151902e-014 -3.69794670925069e-018 -1.0
outer loop
vertex -1270.21173822598 272.476983989675 -0.1970447555844
vertex -1277.33193447598 276.188492540524 -0.197044755584716
vertex -1270.54310907588 272.731253785831 -0.197044755584445
endloop
endfacet
facet normal 5.86997541151902e-014 -3.69794670925069e-018 -1.0
outer loop
vertex -1270.54310907588 272.731253785831 -0.197044755584445
vertex -1277.33193447598 276.188492540524 -0.197044755584716
vertex -1270.79737887204 273.06262463573 -0.197044755584445
endloop
endfacet
facet normal 5.86997541151902e-014 -3.69794670925069e-018 -1.0
outer loop
vertex -1270.79737887204 273.06262463573 -0.197044755584445
vertex -1277.33193447598 276.188492540524 -0.197044755584716
vertex -1270.95721954805 273.448514163566 -0.197044755584445
endloop
endfacet
facet normal 5.86997541151902e-014 -3.69794670925069e-018 -1.0
outer loop
vertex -1270.95721954805 273.448514163566 -0.197044755584445
vertex -1277.33193447598 276.188492540524 -0.197044755584716
vertex -1271.01173822598 273.86262463573 -0.197044755584445
endloop
endfacet
facet normal 5.86997541151902e-014 -3.69794670925069e-018 -1.0
outer loop
vertex -1256.72904197598 271.425992540524 -0.197044755583701
vertex -1269.41173822598 272.26262463573 -0.197044755584355
vertex -1268.99762775382 272.317143313667 -0.197044755584355
endloop
endfacet
facet normal 5.86997541151902e-014 -3.69794670925069e-018 -1.0
outer loop
vertex -1256.72904197598 271.425992540524 -0.197044755583701
vertex -1268.99762775382 272.317143313667 -0.197044755584355
vertex -1268.61173822598 272.476983989675 -0.19704475558431
endloop
endfacet
facet normal 5.86997541151902e-014 -3.69794670925069e-018 -1.0
outer loop
vertex -1256.72904197598 271.425992540524 -0.197044755583701
vertex -1268.61173822598 272.476983989675 -0.19704475558431
vertex -1268.28036737608 272.731253785831 -0.19704475558431
endloop
endfacet
facet normal 5.86997541151902e-014 -3.69794670925069e-018 -1.0
outer loop
vertex -1256.72904197598 271.425992540524 -0.197044755583701
vertex -1268.28036737608 272.731253785831 -0.19704475558431
vertex -1268.02609757993 273.06262463573 -0.19704475558431
endloop
endfacet
facet normal 5.86997541151902e-014 -3.69794670925069e-018 -1.0
outer loop
vertex -1256.72904197598 271.425992540524 -0.197044755583701
vertex -1268.02609757993 273.06262463573 -0.19704475558431
vertex -1267.86625690392 273.448514163566 -0.197044755584265
endloop
endfacet
facet normal 5.86997541151902e-014 -3.69794670925069e-018 -1.0
outer loop
vertex -1256.72904197598 271.425992540524 -0.197044755583701
vertex -1267.86625690392 273.448514163566 -0.197044755584265
vertex -1267.81173822598 273.86262463573 -0.197044755584265
endloop
endfacet
facet normal 5.86997541151902e-014 -3.69794670925069e-018 -1.0
outer loop
vertex -1256.72904197598 271.425992540524 -0.197044755583701
vertex -1267.81173822598 273.86262463573 -0.197044755584265
vertex -1261.49154197598 276.188492540524 -0.197044755583949
endloop
endfacet
facet normal 5.86997541151902e-014 -3.69794670925069e-018 -1.0
outer loop
vertex -1277.33193447598 300.000992540524 -0.197044755584535
vertex -1269.41173822598 300.83762463573 -0.197044755584355
vertex -1261.49154197598 300.000992540524 -0.197044755583859
endloop
endfacet
facet normal 5.86997541151902e-014 -3.69794670925069e-018 -1.0
outer loop
vertex -1269.41173822598 300.83762463573 -0.197044755584355
vertex -1277.33193447598 300.000992540524 -0.197044755584535
vertex -1269.82584869815 300.892143313667 -0.197044755584355
endloop
endfacet
facet normal 5.86997541151902e-014 -3.69794670925069e-018 -1.0
outer loop
vertex -1269.82584869815 300.892143313667 -0.197044755584355
vertex -1277.33193447598 300.000992540524 -0.197044755584535
vertex -1270.21173822598 301.051983989675 -0.1970447555844
endloop
endfacet
facet normal 5.86997541151902e-014 -3.69794670925069e-018 -1.0
outer loop
vertex -1270.21173822598 301.051983989675 -0.1970447555844
vertex -1277.33193447598 300.000992540524 -0.197044755584535
vertex -1270.54310907588 301.306253785831 -0.1970447555844
endloop
endfacet
facet normal 5.86997541151902e-014 -3.69794670925069e-018 -1.0
outer loop
vertex -1270.54310907588 301.306253785831 -0.1970447555844
vertex -1277.33193447598 300.000992540524 -0.197044755584535
vertex -1270.79737887204 301.63762463573 -0.1970447555844
endloop
endfacet
facet normal 5.86997541151902e-014 -3.69794670925069e-018 -1.0
outer loop
vertex -1270.79737887204 301.63762463573 -0.1970447555844
vertex -1277.33193447598 300.000992540524 -0.197044755584535
vertex -1270.95721954805 302.023514163566 -0.197044755584445
endloop
endfacet
facet normal 5.86997541151902e-014 -3.69794670925069e-018 -1.0
outer loop
vertex -1270.95721954805 302.023514163566 -0.197044755584445
vertex -1277.33193447598 300.000992540524 -0.197044755584535
vertex -1271.01173822598 302.43762463573 -0.197044755584445
endloop
endfacet
facet normal 5.86997541151902e-014 -3.69794670925069e-018 -1.0
outer loop
vertex -1261.49154197598 300.000992540524 -0.197044755583859
vertex -1269.41173822598 300.83762463573 -0.197044755584355
vertex -1268.99762775382 300.892143313667 -0.19704475558431
endloop
endfacet
facet normal 5.86997541151902e-014 -3.69794670925069e-018 -1.0
outer loop
vertex -1261.49154197598 300.000992540524 -0.197044755583859
vertex -1268.99762775382 300.892143313667 -0.19704475558431
vertex -1268.61173822598 301.051983989675 -0.19704475558431
endloop
endfacet
facet normal 5.86997541151902e-014 -3.69794670925069e-018 -1.0
outer loop
vertex -1261.49154197598 300.000992540524 -0.197044755583859
vertex -1268.61173822598 301.051983989675 -0.19704475558431
vertex -1268.28036737608 301.306253785831 -0.197044755584265
endloop
endfacet
facet normal 5.86997541151902e-014 -3.69794670925069e-018 -1.0
outer loop
vertex -1261.49154197598 300.000992540524 -0.197044755583859
vertex -1268.28036737608 301.306253785831 -0.197044755584265
vertex -1268.02609757993 301.63762463573 -0.197044755584265
endloop
endfacet
facet normal 5.86997541151902e-014 -3.69794670925069e-018 -1.0
outer loop
vertex -1261.49154197598 300.000992540524 -0.197044755583859
vertex -1268.02609757993 301.63762463573 -0.197044755584265
vertex -1267.86625690392 302.023514163566 -0.197044755584265
endloop
endfacet
facet normal 5.86997541151902e-014 -3.69794670925069e-018 -1.0
outer loop
vertex -1261.49154197598 300.000992540524 -0.197044755583859
vertex -1267.86625690392 302.023514163566 -0.197044755584265
vertex -1267.81173822598 302.43762463573 -0.197044755584265
endloop
endfacet
facet normal 5.60057549371962e-014 0.0 -1.0
outer loop
vertex -1249.88125567158 300.111756730936 1.19983024441666
vertex -1256.72904197598 293.761756730936 1.19983024441627
vertex -1256.72904197598 300.111756730936 1.19983024441627
endloop
endfacet
facet normal 5.60057549371962e-014 0.0 -1.0
outer loop
vertex -1256.72904197598 293.761756730936 1.19983024441627
vertex -1249.88125567158 300.111756730936 1.19983024441666
vertex -1249.88125567158 293.761756730936 1.19983024441666
endloop
endfacet
facet normal 5.60057549371965e-014 -1.06069804982008e-031 -1.0
outer loop
vertex -1249.88125567158 282.649256730936 1.19983024441666
vertex -1256.72904197598 276.299256730936 1.19983024441627
vertex -1256.72904197598 282.649256730936 1.19983024441627
endloop
endfacet
facet normal 5.60057549371965e-014 -1.06069804982008e-031 -1.0
outer loop
vertex -1256.72904197598 276.299256730936 1.19983024441627
vertex -1249.88125567158 282.649256730936 1.19983024441666
vertex -1249.88125567158 276.299256730936 1.19983024441666
endloop
endfacet
facet normal 1.0 0.0 5.56563573360579e-014
outer loop
vertex -1271.01173822598 302.43762463573 -0.197044755584445
vertex -1270.95721954805 302.023514163566 6.80295524441557
vertex -1270.95721954805 302.023514163566 -0.197044755584445
endloop
endfacet
facet normal 0.965925826289068 0.25881904510252 5.37599129480713e-014
outer loop
vertex -1270.95721954805 302.023514163566 6.80295524441557
vertex -1271.01173822598 302.43762463573 -0.197044755584445
vertex -1271.01173822598 302.43762463573 6.80295524441557
endloop
endfacet
facet normal 0.96592582628907 0.258819045102516 5.37599129480714e-014
outer loop
vertex -1270.95721954805 302.023514163566 -0.197044755584445
vertex -1270.79737887204 301.63762463573 6.80295524441559
vertex -1270.79737887204 301.63762463573 -0.1970447555844
endloop
endfacet
facet normal 0.866025403784433 0.500000000000009 4.81998193351302e-014
outer loop
vertex -1270.79737887204 301.63762463573 6.80295524441559
vertex -1270.95721954805 302.023514163566 -0.197044755584445
vertex -1270.95721954805 302.023514163566 6.80295524441557
endloop
endfacet
facet normal -2.40599967182465e-016 1.0 -7.09153133238124e-030
outer loop
vertex -1269.41173822598 300.83762463573 6.80295524441565
vertex -1268.99762775382 300.892143313667 -0.19704475558431
vertex -1269.41173822598 300.83762463573 -0.197044755584355
endloop
endfacet
facet normal -0.258819045102535 0.965925826289065 -1.44049252596039e-014
outer loop
vertex -1268.99762775382 300.892143313667 -0.19704475558431
vertex -1269.41173822598 300.83762463573 6.80295524441565
vertex -1268.99762775382 300.892143313667 6.80295524441568
endloop
endfacet
facet normal 0.258819045102534 0.965925826289064 1.44049252596039e-014
outer loop
vertex -1269.82584869815 300.892143313667 6.80295524441563
vertex -1269.41173822598 300.83762463573 -0.197044755584355
vertex -1269.82584869815 300.892143313667 -0.197044755584355
endloop
endfacet
facet normal 2.40599967182473e-016 1.0 1.97549801402055e-029
outer loop
vertex -1269.41173822598 300.83762463573 -0.197044755584355
vertex -1269.82584869815 300.892143313667 6.80295524441563
vertex -1269.41173822598 300.83762463573 6.80295524441565
endloop
endfacet
facet normal -0.500000000000026 0.866025403784424 -2.78281786680303e-014
outer loop
vertex -1268.61173822598 301.051983989675 6.8029552444157
vertex -1268.28036737608 301.306253785831 -0.197044755584265
vertex -1268.61173822598 301.051983989675 -0.19704475558431
endloop
endfacet
facet normal -0.707106781186531 0.707106781186564 -3.93549876884672e-014
outer loop
vertex -1268.28036737608 301.306253785831 -0.197044755584265
vertex -1268.61173822598 301.051983989675 6.8029552444157
vertex -1268.28036737608 301.306253785831 6.80295524441572
endloop
endfacet
facet normal -0.866025403784444 0.499999999999991 -4.81998193351308e-014
outer loop
vertex -1268.02609757993 301.63762463573 6.80295524441572
vertex -1268.28036737608 301.306253785831 -0.197044755584265
vertex -1268.28036737608 301.306253785831 6.80295524441572
endloop
endfacet
facet normal -0.707106781186531 0.707106781186564 -3.93549876884672e-014
outer loop
vertex -1268.28036737608 301.306253785831 -0.197044755584265
vertex -1268.02609757993 301.63762463573 6.80295524441572
vertex -1268.02609757993 301.63762463573 -0.197044755584265
endloop
endfacet
facet normal 0.500000000000024 0.866025403784425 2.78281786680303e-014
outer loop
vertex -1270.21173822598 301.051983989675 6.80295524441561
vertex -1269.82584869815 300.892143313667 -0.197044755584355
vertex -1270.21173822598 301.051983989675 -0.1970447555844
endloop
endfacet
facet normal 0.258819045102535 0.965925826289064 1.4404925259604e-014
outer loop
vertex -1269.82584869815 300.892143313667 -0.197044755584355
vertex -1270.21173822598 301.051983989675 6.80295524441561
vertex -1269.82584869815 300.892143313667 6.80295524441563
endloop
endfacet
facet normal -1.0 7.05759903735233e-015 -5.56563573360578e-014
outer loop
vertex -1267.81173822598 302.43762463573 6.80295524441575
vertex -1267.86625690392 302.023514163566 -0.197044755584265
vertex -1267.86625690392 302.023514163566 6.80295524441575
endloop
endfacet
facet normal -0.965925826289073 0.258819045102504 -5.37599129480715e-014
outer loop
vertex -1267.86625690392 302.023514163566 -0.197044755584265
vertex -1267.81173822598 302.43762463573 6.80295524441575
vertex -1267.81173822598 302.43762463573 -0.197044755584265
endloop
endfacet
facet normal -0.866025403784433 -0.500000000000009 -4.81998193351302e-014
outer loop
vertex -1268.02609757993 303.23762463573 6.80295524441572
vertex -1267.86625690392 302.851735107894 -0.197044755584265
vertex -1267.86625690392 302.851735107894 6.80295524441575
endloop
endfacet
facet normal -0.965925826289069 -0.258819045102518 -5.37599129480714e-014
outer loop
vertex -1267.86625690392 302.851735107894 -0.197044755584265
vertex -1268.02609757993 303.23762463573 6.80295524441572
vertex -1268.02609757993 303.23762463573 -0.197044755584265
endloop
endfacet
facet normal -0.707106781186532 -0.707106781186563 -3.93549876884673e-014
outer loop
vertex -1268.28036737608 303.568995485628 6.80295524441572
vertex -1268.02609757993 303.23762463573 -0.197044755584265
vertex -1268.02609757993 303.23762463573 6.80295524441572
endloop
endfacet
facet normal -0.866025403784434 -0.500000000000007 -4.81998193351303e-014
outer loop
vertex -1268.02609757993 303.23762463573 -0.197044755584265
vertex -1268.28036737608 303.568995485628 6.80295524441572
vertex -1268.28036737608 303.568995485628 -0.197044755584265
endloop
endfacet
facet normal 0.707106781186533 0.707106781186562 3.93549876884673e-014
outer loop
vertex -1270.54310907588 301.306253785831 6.80295524441559
vertex -1270.21173822598 301.051983989675 -0.1970447555844
vertex -1270.54310907588 301.306253785831 -0.1970447555844
endloop
endfacet
facet normal 0.500000000000026 0.866025403784424 2.78281786680303e-014
outer loop
vertex -1270.21173822598 301.051983989675 -0.1970447555844
vertex -1270.54310907588 301.306253785831 6.80295524441559
vertex -1270.21173822598 301.051983989675 6.80295524441561
endloop
endfacet
facet normal 1.0 0.0 5.60057549371962e-014
outer loop
vertex -1256.72904197598 300.111756730936 -0.197044755583723
vertex -1256.72904197598 293.761756730936 1.19983024441627
vertex -1256.72904197598 293.761756730936 -0.197044755583723
endloop
endfacet
facet normal 1.0 0.0 5.60057549371962e-014
outer loop
vertex -1256.72904197598 293.761756730936 1.19983024441627
vertex -1256.72904197598 300.111756730936 -0.197044755583723
vertex -1256.72904197598 300.111756730936 1.19983024441627
endloop
endfacet
facet normal 1.0 7.105427357601e-015 5.60057549371965e-014
outer loop
vertex -1256.72904197598 282.649256730936 -0.197044755583723
vertex -1256.72904197598 276.299256730936 1.19983024441627
vertex -1256.72904197598 276.299256730936 -0.197044755583723
endloop
endfacet
facet normal 1.0 7.105427357601e-015 5.60057549371965e-014
outer loop
vertex -1256.72904197598 276.299256730936 1.19983024441627
vertex -1256.72904197598 282.649256730936 -0.197044755583723
vertex -1256.72904197598 282.649256730936 1.19983024441627
endloop
endfacet
facet normal 5.27112987644198e-014 -6.55538362921622e-028 -1.0
outer loop
vertex -1282.09443447598 282.649256730936 1.19983024441479
vertex -1288.94222078038 276.299256730936 1.19983024441443
vertex -1288.94222078038 282.649256730936 1.19983024441443
endloop
endfacet
facet normal 5.27112987644198e-014 -6.55538362921622e-028 -1.0
outer loop
vertex -1288.94222078038 276.299256730936 1.19983024441443
vertex -1282.09443447598 282.649256730936 1.19983024441479
vertex -1282.09443447598 276.299256730936 1.19983024441479
endloop
endfacet
facet normal 0.96592582628907 -0.258819045102516 5.37599129480714e-014
outer loop
vertex -1270.95721954805 302.851735107894 -0.197044755584445
vertex -1271.01173822598 302.43762463573 6.80295524441557
vertex -1271.01173822598 302.43762463573 -0.197044755584445
endloop
endfacet
facet normal 1.0 0.0 5.56563573360578e-014
outer loop
vertex -1271.01173822598 302.43762463573 6.80295524441557
vertex -1270.95721954805 302.851735107894 -0.197044755584445
vertex -1270.95721954805 302.851735107894 6.80295524441557
endloop
endfacet
facet normal -1.0 1.4210854715202e-014 -5.27112987644198e-014
outer loop
vertex -1282.09443447598 282.649256730936 1.19983024441479
vertex -1282.09443447598 276.299256730936 -0.197044755585212
vertex -1282.09443447598 276.299256730936 1.19983024441479
endloop
endfacet
facet normal -1.0 1.4210854715202e-014 -5.27112987644198e-014
outer loop
vertex -1282.09443447598 276.299256730936 -0.197044755585212
vertex -1282.09443447598 282.649256730936 1.19983024441479
vertex -1282.09443447598 282.649256730936 -0.197044755585212
endloop
endfacet
facet normal 5.27112987644199e-014 3.74536304295389e-028 -1.0
outer loop
vertex -1282.09443447598 300.111756730936 1.19983024441479
vertex -1288.94222078038 293.761756730936 1.19983024441443
vertex -1288.94222078038 300.111756730936 1.19983024441443
endloop
endfacet
facet normal 5.27112987644199e-014 3.74536304295389e-028 -1.0
outer loop
vertex -1288.94222078038 293.761756730936 1.19983024441443
vertex -1282.09443447598 300.111756730936 1.19983024441479
vertex -1282.09443447598 293.761756730936 1.19983024441479
endloop
endfacet
facet normal -0.258819045102535 0.965925826289064 -1.4404925259604e-014
outer loop
vertex -1268.99762775382 300.892143313667 6.80295524441568
vertex -1268.61173822598 301.051983989675 -0.19704475558431
vertex -1268.99762775382 300.892143313667 -0.19704475558431
endloop
endfacet
facet normal -0.500000000000024 0.866025403784425 -2.78281786680303e-014
outer loop
vertex -1268.61173822598 301.051983989675 -0.19704475558431
vertex -1268.99762775382 300.892143313667 6.80295524441568
vertex -1268.61173822598 301.051983989675 6.8029552444157
endloop
endfacet
facet normal 0.866025403784435 0.500000000000007 4.81998193351303e-014
outer loop
vertex -1270.79737887204 301.63762463573 -0.1970447555844
vertex -1270.54310907588 301.306253785831 6.80295524441559
vertex -1270.54310907588 301.306253785831 -0.1970447555844
endloop
endfacet
facet normal 0.707106781186533 0.707106781186562 3.93549876884673e-014
outer loop
vertex -1270.54310907588 301.306253785831 6.80295524441559
vertex -1270.79737887204 301.63762463573 -0.1970447555844
vertex -1270.79737887204 301.63762463573 6.80295524441559
endloop
endfacet
facet normal -0.965925826289072 0.258819045102505 -5.37599129480715e-014
outer loop
vertex -1267.86625690392 302.023514163566 6.80295524441575
vertex -1268.02609757993 301.63762463573 -0.197044755584265
vertex -1268.02609757993 301.63762463573 6.80295524441572
endloop
endfacet
facet normal -0.866025403784445 0.499999999999989 -4.81998193351308e-014
outer loop
vertex -1268.02609757993 301.63762463573 -0.197044755584265
vertex -1267.86625690392 302.023514163566 6.80295524441575
vertex -1267.86625690392 302.023514163566 -0.197044755584265
endloop
endfacet
facet normal -0.965925826289069 -0.258819045102519 -5.37599129480714e-014
outer loop
vertex -1267.86625690392 302.851735107894 6.80295524441575
vertex -1267.81173822598 302.43762463573 -0.197044755584265
vertex -1267.81173822598 302.43762463573 6.80295524441575
endloop
endfacet
facet normal -1.0 7.05759903735239e-015 -5.56563573360578e-014
outer loop
vertex -1267.81173822598 302.43762463573 -0.197044755584265
vertex -1267.86625690392 302.851735107894 6.80295524441575
vertex -1267.86625690392 302.851735107894 -0.197044755584265
endloop
endfacet
facet normal -1.0 -7.105427357601e-015 -5.27112987644199e-014
outer loop
vertex -1282.09443447598 300.111756730936 1.19983024441479
vertex -1282.09443447598 293.761756730936 -0.197044755585212
vertex -1282.09443447598 293.761756730936 1.19983024441479
endloop
endfacet
facet normal -1.0 -7.105427357601e-015 -5.27112987644199e-014
outer loop
vertex -1282.09443447598 293.761756730936 -0.197044755585212
vertex -1282.09443447598 300.111756730936 1.19983024441479
vertex -1282.09443447598 300.111756730936 -0.197044755585212
endloop
endfacet
endsolid LiteArm_i2_REV4_10
